<?xml version="1.0" standalone="yes"?>

<svg version="1.1" viewBox="0.0 0.0 594.7847769028872 185.97900262467192" fill="none" stroke="none" stroke-linecap="square" stroke-miterlimit="10" xmlns="http://www.w3.org/2000/svg" xmlns:xlink="http://www.w3.org/1999/xlink"><clipPath id="p.0"><path d="m0 0l594.7848 0l0 185.979l-594.7848 0l0 -185.979z" clip-rule="nonzero"></path></clipPath><g clip-path="url(#p.0)"><path fill="#000000" d="m0 0l594.7848 0l0 185.979l-594.7848 0z" fill-rule="evenodd"></path><path fill="#000000" fill-opacity="0.0" d="m17.10761 -76.37795l181.60631 0l0 289.5118l-181.60631 0z" fill-rule="evenodd"></path><path fill="#ffffff" d="m138.6701 11.100166l-1.4375 14.875l-26.890617 -1.4375l-15.59375 0l-0.71875 90.484375l0.71875 47.999992l-19.4375 0l1.4375 -46.312492l-1.203125 -92.171875l-15.59375 0l-27.359375 1.4375l-1.2031269 -1.90625l1.4375019 -14.890625l104.40624 0l1.4375 1.921875z" fill-rule="nonzero"></path><path fill="#000000" fill-opacity="0.0" d="m125.35185 -8.611548l461.54327 0l0 132.91338l-461.54327 0z" fill-rule="evenodd"></path><path fill="#ffffff" d="m214.99248 129.03532l0.3125 24.953125l-11.828125 0l0.46875 -24.0l-0.15625 -10.875008l-43.359375 0.15625l-0.15625 9.765633l0.3125 24.953125l-11.828125 0l0.46875 -24.0l-0.46875 -55.687508l12.0 0l-0.328125 34.25l21.609375 0.15625l21.75 -0.15625l-0.3125 -34.25l12.0 0l-0.484375 54.734383zm65.76628 -7.2031326q9.75 14.875008 21.59375 29.281258l-0.15625 1.59375q-6.71875 2.078125 -11.046875 2.40625l-2.078125 -1.28125q-12.15625 -18.40625 -18.40625 -28.968758l-15.031235 0.171875l0 4.0000076l0.3125 24.953125l-11.828125 0l0.46875 -24.0l-0.46875 -55.687508l27.187485 -0.15625q12.640625 0 19.4375 5.921875q6.8125 5.921875 6.8125 17.125q0 8.15625 -4.40625 14.5625q-4.390625 6.390625 -12.390625 10.078125zm-24.968735 -6.71875l15.04686 0.46875q14.234375 -4.0 14.234375 -17.4375q0 -7.03125 -4.15625 -10.546875q-4.15625 -3.53125 -12.640625 -3.84375l-12.32811 0.15625l-0.15625 31.203125zm116.32878 28.640633l0.953125 0.953125l-1.125 9.28125l-48.46875 0l0.46875 -24.0l-0.46875 -55.687508l48.796875 0l0.796875 0.96875l-0.953125 9.28125l-20.171875 -0.640625l-16.640625 0.15625l-0.15625 24.15625l15.84375 0.171875l13.921875 -0.484375l0.796875 1.125l-0.953125 9.4375l-14.734375 -0.484375l-14.875 0.15625l-0.15625 10.890633l0.15625 15.1875l15.6875 0.171875l21.28125 -0.640625zm52.14691 -70.07813q18.25 0 27.921875 9.765625q9.6875 9.75 9.6875 27.984375q0 20.968758 -10.5625 32.171883q-10.5625 11.1875 -30.234375 11.1875q-5.609375 0 -13.375 -0.25q-7.75 -0.234375 -14.625 -0.546875l0.46875 -24.0l-0.46875 -55.687508l31.1875 -0.625zm-1.28125 71.35938q12.8125 0 19.765625 -7.765625q6.96875 -7.765625 6.96875 -23.437508q0 -15.359375 -6.5625 -22.71875q-6.5625 -7.359375 -19.84375 -7.359375q-7.84375 0 -18.40625 0.640625l-0.3125 44.640633l0.15625 15.03125q4.640625 0.328125 9.75 0.65625q5.125 0.3125 8.484375 0.3125zm97.294464 -23.203133q9.75 14.875008 21.59375 29.281258l-0.15625 1.59375q-6.71875 2.078125 -11.046875 2.40625l-2.078125 -1.28125q-12.15625 -18.40625 -18.40628 -28.968758l-15.03125 0.171875l0 4.0000076l0.3125 24.953125l-11.828125 0l0.46875 -24.0l-0.46875 -55.687508l27.1875 -0.15625q12.6406555 0 19.43753 5.921875q6.8125 5.921875 6.8125 17.125q0 8.15625 -4.40625 14.5625q-4.390625 6.390625 -12.390625 10.078125zm-24.96878 -6.71875l15.046875 0.46875q14.2344055 -4.0 14.2344055 -17.4375q0 -7.03125 -4.15625 -10.546875q-4.15625 -3.53125 -12.6406555 -3.84375l-12.328125 0.15625l-0.15625 31.203125z" fill-rule="nonzero"></path></g></svg>

